Coordinates
version=1
nRows=8
nColumns=34
inDegrees=yes

Units are S.I. units (second, meters, Newtons, ...)
If the header above contains a line with 'inDegrees', this indicates whether rotational values are in degrees (yes) or radians (no).

endheader
time	pelvis_tilt	pelvis_list	pelvis_rotation	pelvis_tx	pelvis_ty	pelvis_tz	hip_flexion_r	hip_adduction_r	hip_rotation_r	knee_angle_r	ankle_angle_r	subtalar_angle_r	mtp_angle_r	hip_flexion_l	hip_adduction_l	hip_rotation_l	knee_angle_l	ankle_angle_l	subtalar_angle_l	mtp_angle_l	lumbar_extension	lumbar_bending	lumbar_rotation	arm_flex_r	arm_add_r	arm_rot_r	elbow_flex_r	pro_sup_r	arm_flex_l	arm_add_l	arm_rot_l	elbow_flex_l	pro_sup_l
      2.68333330	     -9.54928896	      0.79688033	     -3.58154566	      0.36343404	      0.85011860	     -0.02480214	     33.16078893	    -11.60043310	     -3.33142292	     40.11449573	     19.87417751	      4.94783955	      0.00000000	     32.14244425	    -15.37236988	    -14.55558865	     42.70904067	     18.32243591	      0.26562958	      0.00000000	     -7.07477794	      0.04112001	      7.91260384	     97.19867390	     -3.36678140	     62.45564794	    129.76446187	    102.47502160	    102.02368740	     -6.37624053	     74.68986846	    143.91221110	    112.68743810
      2.70000000	     -9.36540143	      0.64935983	     -3.34570926	      0.35864293	      0.84331898	     -0.02357260	     34.79498685	    -12.15066468	     -4.06517233	     43.21061620	     21.41622077	      6.43607174	      0.00000000	     33.70547792	    -16.44488441	    -14.82994797	     45.57105915	     19.58395133	      1.34592021	      0.00000000	     -8.59391465	      0.10431635	      7.79018612	     97.44959908	     -3.45675307	     62.40361852	    129.68535156	    102.47394881	    102.46513713	     -7.41651752	     76.36714190	    142.12038046	    112.83461696
      2.71666670	     -9.23398270	      0.51193807	     -3.23449585	      0.35845424	      0.83150710	     -0.02545507	     36.38583073	    -12.74110262	     -4.56466719	     46.21472062	     22.90788949	      7.52245903	      0.00000000	     35.23296467	    -17.47801397	    -14.92834210	     48.44673102	     21.05039329	      2.34721190	      0.00000000	     -9.92461839	      0.31296989	      6.82770884	     98.15233233	     -2.86364241	     62.48011693	    129.92795151	    102.39969866	    103.40704168	     -8.53931281	     77.44678503	    139.61643386	    112.84280820
      2.73333330	     -9.19793793	      0.41531923	     -3.09136449	      0.35241627	      0.82449383	     -0.02642714	     38.07568304	    -13.38229111	     -5.02305019	     49.11283574	     24.41043385	      8.86337576	      0.00000000	     36.83207866	    -18.29224405	    -14.84007192	     51.00627025	     22.74569454	      3.87198853	      0.00000000	    -11.60686581	      0.51588257	      5.50464897	     99.32024670	     -2.22771010	     62.07625759	    129.26943402	    102.18583410	    105.36301859	     -9.24682802	     78.32105251	    136.06033902	    112.67917249
      2.75000000	     -8.82958959	      0.35506007	     -2.98471837	      0.35126182	      0.82034772	     -0.02699308	     39.16962638	    -13.98293672	     -5.29880384	     51.71758678	     25.84217641	     10.46250561	      0.00000000	     37.80488326	    -19.02810241	    -14.80619600	     53.18934570	     23.89388971	      5.24139634	      0.00000000	    -13.39180763	      0.70745438	      4.29177621	     99.84362898	     -1.74691205	     61.96238377	    128.60962772	    101.80748064	    106.59210499	    -10.13267038	     79.75975138	    132.21623112	    112.22507718
      2.76666670	     -8.56750441	      0.34201725	     -2.79195667	      0.34923754	      0.81364441	     -0.02633856	     40.27275807	    -14.61322531	     -5.62340369	     54.16237180	     26.83309367	     11.62449931	      0.00000000	     38.77526330	    -19.74958973	    -15.02299959	     55.25994477	     24.66402486	      6.20701051	      0.00000000	    -14.94163599	      0.73607728	      3.30800558	    100.12837702	     -1.33544615	     62.94723944	    128.93717672	    101.40955201	    107.47262648	    -10.41110403	     81.26659464	    130.46926303	    111.59535902
      2.78333330	     -8.36492944	      0.36143772	     -2.76778759	      0.34663513	      0.80416642	     -0.02778010	     41.52683641	    -15.19910683	     -5.59101133	     56.78685940	     27.95198764	     12.43751902	      0.00000000	     39.88562691	    -20.37448785	    -14.93178599	     57.32590911	     25.69704674	      7.12710039	      0.00000000	    -16.17903144	      0.68311625	      3.44690334	    100.45585024	     -1.91696167	     63.29599971	    128.89607504	    101.09103691	    107.85257083	    -10.37098510	     81.54137808	    131.65769444	    111.06565431
      2.80000000	     -8.15046311	      0.38062436	     -2.76588845	      0.34364208	      0.79523506	     -0.02761326	     42.67782209	    -15.74821859	     -5.55780238	     59.28584421	     29.20169882	     13.25248753	      0.00000000	     41.05497317	    -20.98530645	    -14.76686130	     59.53934579	     26.58520967	      7.98270829	      0.00000000	    -17.77071266	      0.83308221	      2.64044960	    101.72170886	     -1.61157968	     63.45120620	    127.72179726	     94.11423478	    109.23883398	    -10.95799034	     82.10091468	    132.13333296	    100.21414582
